<?xml version="1.0" encoding="utf-8"?>
<!-- Generator: Adobe Illustrator 27.2.0, SVG Export Plug-In . SVG Version: 6.00 Build 0)  -->
<svg version="1.1" id="Layer_1" xmlns="http://www.w3.org/2000/svg" xmlns:xlink="http://www.w3.org/1999/xlink" x="0px" y="0px"
	 viewBox="0 0 388.3 117.15" style="enable-background:new 0 0 388.3 117.15;" xml:space="preserve">
<style type="text/css">
	.st0{fill:url(#SVGID_1_);stroke:#F1F2F2;stroke-miterlimit:10;}
	.st1{fill:#2D3790;}
	.st2{font-family:'OpenSans-Extrabold';}
	.st3{font-size:60px;}
</style>
<linearGradient id="SVGID_1_" gradientUnits="userSpaceOnUse" x1="6.2984" y1="57.8387" x2="104.3442" y2="57.8387">
	<stop  offset="0" style="stop-color:#2E3392"/>
	<stop  offset="1" style="stop-color:#F26422"/>
</linearGradient>
<path class="st0" d="M99.5,98.08H70.22c-0.96,6.57-7.27,11.64-14.9,11.64c-7.63,0-13.94-5.07-14.91-11.64H10.79
	c-3.75,0-5.83-4.8-3.52-8.08c4.13-5.84,8.75-13.54,8.75-18.5V43.87c0-2.23,0.25-14.1,11.07-23.69c5.28-4.69,12.13-7.99,19.79-9.25
	c0.86-2.86,3.78-4.97,7.25-4.97c3.53,0,6.49,2.16,7.29,5.09c7.37,1.34,13.97,4.59,19.09,9.13c6.84,6.06,11.07,14.43,11.07,23.69
	v27.52c0,4.66,5.7,11.72,11.22,17.41C106.01,92.11,103.89,98.08,99.5,98.08z"/>
<text transform="matrix(1 0 0 1 115.3039 79.9558)" class="st1 st2 st3">BELLIUM</text>
</svg>
